# xmcd
# 
# Track frame offsets:
#     182
#     14942
#     30477
#     49882
#     66530
#     78802
#     99775
#     119980
#     131650
#     152825
#     171157
#     188572
# 
# Disc length: 2670
# 
# Revision: 1
# Processed by: cddbd v1.5.2PL0 Copyright (c) Steve Scherf et al.
# Submitted via: BonkEnc v1.0
# 
DISCID=a40a6c0c
DTITLE=Various Artist - Love music Of the 70's A
DYEAR=0
DGENRE=Pop
TTITLE0=Andy Williams  - Love Story
TTITLE1=Harold Mervin and the Blue notes - If You Dont Know Me By Now
TTITLE2=Bill Withers - Lean On Me
TTITLE3=Sharif Dean - Do You Love Me
TTITLE4=Tammy Wynette - Stand By Your Man
TTITLE5=Santana - Samba Pa Ti
TTITLE6=Manhattans - Kiss And Say Goodbye
TTITLE7=Albert West - Sealed With A Kiss
TTITLE8=Boston - More Than A Feeling
TTITLE9=Mike Batt - Lady Of The Dawn
TTITLE10=Dr Hook and the Medicine Show - Silvias Mother
TTITLE11=Sutherland Brothers - Arms Of Mary
EXTD=
EXTT0=
EXTT1=
EXTT2=
EXTT3=
EXTT4=
EXTT5=
EXTT6=
EXTT7=
EXTT8=
EXTT9=
EXTT10=
EXTT11=
PLAYORDER=
